<svg width="151" height="42" fill="white" xmlns="http://www.w3.org/2000/svg"><g clip-path="url(#a)" fill="white"><path d="M27.702 20.794c0 4.05-2.115 7.622-5.312 9.687-.673.436-1.393.805-2.152 1.097V42.6h-2.866V29.552a8.982 8.982 0 0 0 5.018-2.55 8.776 8.776 0 0 0 2.574-6.208c0-4.426-3.298-8.104-7.592-8.758V9.304c5.81.672 10.33 5.57 10.33 11.49Z"/><path d="M26.552 0v2.842H14.645v6.346l-.012.004v2.244a9.015 9.015 0 0 0-4.976 2.507 8.788 8.788 0 0 0-2.615 6.25c0 4.426 3.298 8.105 7.591 8.759v2.732c-5.808-.672-10.329-5.57-10.329-11.49 0-4.068 2.134-7.653 5.354-9.715.7-.45 1.455-.828 2.249-1.121V2.842H0V0h26.552Z"/></g><g clip-path="url(#b)" fill="white"><path d="M35.495 13.54V4.3H32.17v-1.62h8.498V4.3h-3.34v9.239h-1.833ZM41.414 13.54V2.68h1.832v4.507h5.223V2.681h1.832V13.54h-1.832V8.807h-5.22v4.733h-1.835ZM52.734 13.54V2.68h7.689v1.621h-5.855v2.886h4.851v1.62h-4.85v3.113h5.854v1.62h-7.689ZM32.17 20.34c0-3.13 2.157-5.577 5.354-5.577 3.18 0 5.354 2.448 5.354 5.576 0 3.145-2.172 5.592-5.354 5.592-3.197 0-5.354-2.448-5.354-5.592Zm8.791 0c0-2.238-1.152-3.842-3.42-3.842-2.27 0-3.44 1.607-3.44 3.841 0 2.253 1.168 3.841 3.44 3.841 2.27 0 3.42-1.588 3.42-3.84ZM44.593 25.785V14.928h4.443c2.287 0 4.07 1.168 4.07 3.76 0 2.479-1.767 3.662-4.07 3.662h-2.611v3.437h-1.832v-.002Zm1.834-9.236v4.181h2.434c1.248 0 2.35-.47 2.35-2.043 0-1.686-1.102-2.139-2.35-2.139h-2.434ZM54.47 25.785V14.928h4.443c2.287 0 4.071 1.168 4.071 3.76 0 2.479-1.768 3.662-4.07 3.662h-2.612v3.437H54.47v-.002Zm1.834-9.236v4.181h2.434c1.248 0 2.35-.47 2.35-2.043 0-1.686-1.102-2.139-2.35-2.139h-2.434ZM64.022 20.34c0-3.13 2.157-5.577 5.354-5.577 3.18 0 5.352 2.448 5.352 5.576 0 3.145-2.173 5.592-5.352 5.592-3.197 0-5.354-2.448-5.354-5.592Zm8.791 0c0-2.238-1.15-3.842-3.42-3.842-2.272 0-3.44 1.604-3.44 3.841 0 2.253 1.168 3.841 3.44 3.841 2.27 0 3.42-1.588 3.42-3.84ZM76.445 25.785V14.928h4.899c2.207 0 3.86 1.134 3.86 3.37 0 1.815-1.249 2.887-2.953 3.081.65.195 1.087.599 1.475 1.28l1.85 3.128h-2.108l-1.882-3.224c-.405-.729-.956-.99-1.978-.99h-1.331v4.214h-1.832v-.002Zm1.834-9.236v3.532h2.886c1.153 0 2.14-.42 2.14-1.734 0-1.378-.99-1.799-2.14-1.799H78.28ZM88.74 25.785v-9.236h-3.326v-1.62h8.501v1.62h-3.341v9.238H88.74v-.002ZM94.53 21.15V14.93h1.816v6.24c0 2.155.73 3.03 2.513 3.03 1.816 0 2.513-.875 2.513-3.03v-6.24h1.816v6.222c0 3.29-1.379 4.796-4.347 4.796-2.9 0-4.31-1.506-4.31-4.796ZM105.494 25.785V14.928h1.704l4.395 6.321 1.07 1.703-.114-2.06V14.93h1.832v10.858h-1.688l-4.51-6.419-.991-1.54.131 1.977v5.98h-1.829ZM116.814 25.785V14.928h1.832v10.86h-1.832v-.003ZM122.732 25.785v-9.236h-3.325v-1.62h8.498v1.62h-3.341v9.238h-1.832v-.002ZM128.653 25.785V14.928h1.832v10.86h-1.832v-.003ZM132.918 25.785V14.928h7.689v1.62h-5.857v2.887h4.851v1.62h-4.851v3.112h5.854v1.62h-7.686v-.002ZM141.448 23.372l1.297-1.314c.583 1.588 2.223 2.205 3.552 2.205 1.086 0 1.962-.389 1.962-1.378 0-1.054-.876-1.346-2.287-1.652l-1.023-.226c-1.541-.325-3.178-1.022-3.178-3.08 0-2.044 1.767-3.145 3.812-3.145 1.994 0 3.584.827 4.364 2.317l-1.379 1.314c-.599-1.346-1.768-1.928-3.099-1.928-1.039 0-1.784.486-1.784 1.314 0 .955.745 1.295 1.93 1.588l1.217.292c1.736.42 3.293 1.102 3.293 3.177 0 1.96-1.653 3.096-3.86 3.096-2.074-.005-3.973-.75-4.817-2.58ZM33.792 38.282V27.423h4.443c2.287 0 4.07 1.168 4.07 3.759 0 2.48-1.767 3.663-4.07 3.663h-2.612v3.437h-1.831Zm1.834-9.239v4.182h2.433c1.249 0 2.351-.47 2.351-2.043 0-1.687-1.102-2.139-2.35-2.139h-2.434ZM43.344 32.837c0-3.129 2.157-5.576 5.354-5.576 3.179 0 5.354 2.447 5.354 5.576 0 3.144-2.172 5.591-5.354 5.591-3.195-.002-5.354-2.45-5.354-5.591Zm8.791 0c0-2.238-1.153-3.842-3.421-3.842s-3.44 1.604-3.44 3.841c0 2.254 1.17 3.842 3.44 3.842 2.271 0 3.421-1.591 3.421-3.841ZM55.767 38.282V27.423h4.898c2.207 0 3.86 1.133 3.86 3.37 0 1.815-1.248 2.887-2.952 3.081.65.194 1.086.598 1.475 1.28l1.85 3.128H62.79l-1.882-3.224c-.405-.73-.956-.99-1.979-.99H57.6v4.214h-1.832Zm1.834-9.239v3.533h2.886c1.153 0 2.14-.42 2.14-1.735 0-1.378-.99-1.798-2.14-1.798H57.6ZM68.061 38.282v-9.239h-3.325v-1.62h8.5v1.62h-3.34v9.239H68.06ZM72.001 38.282l4.25-10.859h2.108l4.25 10.859h-2.01l-1.04-2.74H74.97l-1.038 2.74h-1.93Zm3.57-4.328h3.39l-1.102-2.934-.583-1.96-.584 1.96-1.12 2.934ZM83.34 38.282V27.423h1.832v9.239h5.564v1.62H83.34Z"/></g><defs><clipPath id="a"><path fill="white" d="M0 0h27.702v42H0z"/></clipPath><clipPath id="b"><path fill="white" transform="translate(32.17 2.68)" d="M0 0h117.957v35.745H0z"/></clipPath></defs></svg>